<svg width="1487" height="1848" viewBox="0 0 1487 1848" fill="none" xmlns="http://www.w3.org/2000/svg">
<g clip-path="url(#clip0_297_1650)">
<path d="M1004.26 4.04324L1482.93 898.254L568.755 1379.95L95.5538 482.755L1004.26 4.04324Z" fill="url(#paint0_linear_297_1650)" stroke="black" stroke-width="6"/>
<path d="M0 1028.5L80.5 543L545 1424L429 1834L0 1028.5Z" fill="black" stroke="white"/>
<path d="M1336 1386.5L1476 948L578 1426.5L469 1848.5L1336 1386.5Z" fill="#313131" stroke="white"/>
<path d="M562.543 784.587C527.509 801.721 491.267 809.45 453.815 807.777C416.187 805.753 381.502 794.687 349.759 774.577C318.193 753.944 293.276 725.497 275.008 689.236C256.74 652.975 248.897 616.395 251.48 579.498C254.24 542.077 266.267 508.166 287.558 477.762C308.85 447.359 337.013 423.591 372.047 406.457C407.434 389.151 443.678 381.42 480.775 383.267C518.227 384.942 552.736 396.095 584.301 416.727C615.691 437.01 640.52 465.283 658.787 501.544C677.056 537.805 684.987 574.56 682.58 611.806C679.997 648.704 668.148 682.529 647.032 713.281C625.74 743.684 597.578 767.452 562.543 784.587ZM514.59 689.4C541.13 676.421 557.706 657.667 564.315 633.14C571.279 608.441 567.559 581.795 553.155 553.205C538.4 523.917 519.022 504.713 495.02 495.591C471.196 485.948 446.014 487.617 419.473 500.597C392.579 513.75 375.827 532.59 369.217 557.117C362.432 581.295 366.416 608.028 381.171 637.316C395.75 666.255 414.952 685.546 438.776 695.189C462.424 704.483 487.696 702.553 514.59 689.4Z" fill="black"/>
<path d="M756.059 725.09L962.949 1094.04L860.375 1151.56L777.325 1003.46L652.248 1073.59L735.297 1221.7L632.723 1279.22L425.834 910.264L528.408 852.745L606.175 991.43L731.252 921.293L653.485 782.608L756.059 725.09Z" fill="#171717"/>
<path d="M1227.52 508.177L1284.99 951.892L1150.1 1018.85L830.891 705.05L943.752 649.029L1165.53 879.901L1115.19 563.931L1227.52 508.177Z" fill="#171717"/>
<path d="M1018.89 573.922C970.036 595.785 924.199 603.353 881.384 596.626C838.37 589.54 804.927 567.015 781.052 529.05L905.58 473.327C914.067 486.043 923.76 493.757 934.659 496.466C945.557 499.177 956.965 497.866 968.882 492.533C979.607 487.734 987.064 481.497 991.254 473.82C995.643 465.607 995.472 457.204 990.741 448.61C984.629 437.509 974.136 431.492 959.265 430.559C944.394 429.627 921.979 431.177 892.018 435.211C860.076 439.238 833.494 441.314 812.273 441.437C791.252 441.024 770.345 436.321 749.55 427.328C728.954 417.798 712.052 401.037 698.842 377.045C685.434 352.695 680.751 328.905 684.793 305.674C688.637 282.084 700.011 260.48 718.915 240.863C737.819 221.246 762.366 204.684 792.554 191.176C841.412 169.313 886.057 162.279 926.49 170.072C967.123 177.33 998.685 199.136 1021.18 235.488L894.264 292.277C887.558 280.996 878.854 274.179 868.152 271.827C857.847 269.297 846.936 270.609 835.416 275.764C826.678 279.674 820.809 285.201 817.812 292.345C814.813 299.488 815.681 307.358 820.413 315.951C824.356 323.113 830.785 328.046 839.701 330.752C848.817 332.921 859.027 333.931 870.332 333.782C881.439 333.275 897.508 331.887 918.538 329.617C949.687 325.944 976.069 324.405 997.684 324.998C1019.5 325.055 1040.61 329.669 1061 338.841C1081.6 347.476 1098.01 362.895 1110.24 385.097C1122.66 407.656 1127.44 430.732 1124.59 454.324C1122.13 477.739 1111.85 499.97 1093.73 521.019C1076.02 541.891 1051.07 559.526 1018.89 573.922Z" fill="#393939"/>
</g>
<defs>
<linearGradient id="paint0_linear_297_1650" x1="603.5" y1="345" x2="983" y2="1085" gradientUnits="userSpaceOnUse">
<stop stop-color="#55F5A3"/>
<stop offset="1" stop-color="#96F595"/>
</linearGradient>
<clipPath id="clip0_297_1650">
<rect width="1487" height="1848" fill="white"/>
</clipPath>
</defs>
</svg>
